<svg xmlns="http://www.w3.org/2000/svg" style="display:none">
  <!-- direction -->
  <symbol id="i-n" viewBox="0 0 24 24">
    <g fill="none" stroke="currentColor" stroke-width="1.8" stroke-linecap="round" stroke-linejoin="round">
      <line x1="12" y1="21" x2="12" y2="10"/>
      <polygon points="12,2.5 17.5,10.5 6.5,10.5" fill="currentColor" stroke="none"/>
    </g>
  </symbol>
  <symbol id="i-s" viewBox="0 0 24 24">
    <g fill="none" stroke="currentColor" stroke-width="1.8" stroke-linecap="round" stroke-linejoin="round">
      <line x1="12" y1="3" x2="12" y2="14"/>
      <polygon points="12,21.5 17.5,13.5 6.5,13.5" fill="currentColor" stroke="none"/>
    </g>
  </symbol>
  <symbol id="i-e" viewBox="0 0 24 24">
    <g fill="none" stroke="currentColor" stroke-width="1.8" stroke-linecap="round" stroke-linejoin="round">
      <line x1="3" y1="12" x2="14" y2="12"/>
      <polygon points="21.5,12 13.5,6.5 13.5,17.5" fill="currentColor" stroke="none"/>
    </g>
  </symbol>
  <symbol id="i-w" viewBox="0 0 24 24">
    <g fill="none" stroke="currentColor" stroke-width="1.8" stroke-linecap="round" stroke-linejoin="round">
      <line x1="21" y1="12" x2="10" y2="12"/>
      <polygon points="2.5,12 10.5,6.5 10.5,17.5" fill="currentColor" stroke="none"/>
    </g>
  </symbol>
  <symbol id="i-up" viewBox="0 0 24 24">
    <g fill="none" stroke="currentColor" stroke-width="1.8" stroke-linecap="round" stroke-linejoin="round">
      <line x1="20" y1="20.5" x2="13" y2="20.5"/>
      <line x1="20" y1="15.5" x2="10" y2="15.5"/>
      <line x1="20" y1="10.5" x2="7" y2="10.5"/>
      <line x1="12" y1="8" x2="12" y2="3"/>
      <polyline points="9,6 12,3 15,6"/>
    </g>
  </symbol>
  <symbol id="i-down" viewBox="0 0 24 24">
    <g fill="none" stroke="currentColor" stroke-width="1.8" stroke-linecap="round" stroke-linejoin="round">
      <line x1="4" y1="3.5" x2="11" y2="3.5"/>
      <line x1="4" y1="8.5" x2="14" y2="8.5"/>
      <line x1="4" y1="13.5" x2="17" y2="13.5"/>
      <line x1="12" y1="16" x2="12" y2="21"/>
      <polyline points="9,18 12,21 15,18"/>
    </g>
  </symbol>

  <!-- actions -->
  <symbol id="i-look" viewBox="0 0 24 24">
    <g fill="none" stroke="currentColor" stroke-width="1.8" stroke-linecap="round" stroke-linejoin="round">
      <path d="M2.5 12C4.8 7.6 8.2 5.4 12 5.4C15.8 5.4 19.2 7.6 21.5 12C19.2 16.4 15.8 18.6 12 18.6C8.2 18.6 4.8 16.4 2.5 12Z"/>
      <circle cx="12" cy="12" r="2.7"/>
    </g>
  </symbol>
  <symbol id="i-take" viewBox="0 0 24 24">
    <g fill="none" stroke="currentColor" stroke-width="1.8" stroke-linecap="round" stroke-linejoin="round">
      <line x1="12" y1="2.5" x2="12" y2="6.5"/>
      <polyline points="10,4.5 12,2.5 14,4.5"/>
      <path d="M10.5 7.5C7 8 4.5 10.5 4.5 14.5C4.5 18.2 7.6 21 11.5 21C15.4 21 18 18.2 18 14.5L18 12.5L20.5 10.8L18.6 8.8L16.6 10.4L16.6 7.5Z" fill="currentColor" stroke="none"/>
    </g>
  </symbol>
  <symbol id="i-drop" viewBox="0 0 24 24">
    <g fill="none" stroke="currentColor" stroke-width="1.8" stroke-linecap="round" stroke-linejoin="round">
      <path d="M13.5 7.5C17 8 19.5 10.5 19.5 14.5C19.5 18.2 16.4 21 12.5 21C8.6 21 6 18.2 6 14.5L6 12.5L3.5 10.8L5.4 8.8L7.4 10.4L7.4 7.5Z" fill="currentColor" stroke="none"/>
      <line x1="12" y1="14.5" x2="12" y2="18.5"/>
      <polyline points="10,16.5 12,18.5 14,16.5"/>
    </g>
  </symbol>
  <symbol id="i-bag" viewBox="0 0 24 24">
    <g fill="none" stroke="currentColor" stroke-width="1.8" stroke-linecap="round" stroke-linejoin="round">
      <path d="M6 8.5H18C19.1 8.5 20 9.4 20 10.5V18C20 19.1 19.1 20 18 20H6C4.9 20 4 19.1 4 18V10.5C4 9.4 4.9 8.5 6 8.5Z"/>
      <path d="M9 8.5V6.5C9 4.8 10.3 3.5 12 3.5C13.7 3.5 15 4.8 15 6.5V8.5"/>
      <line x1="9" y1="15.5" x2="15" y2="15.5"/>
    </g>
  </symbol>
  <symbol id="i-person" viewBox="0 0 24 24">
    <g fill="none" stroke="currentColor" stroke-width="1.8" stroke-linecap="round" stroke-linejoin="round">
      <circle cx="12" cy="8" r="3.6"/>
      <path d="M5 21.5C5 16.6 8.1 14.2 12 14.2C15.9 14.2 19 16.6 19 21.5Z"/>
    </g>
  </symbol>
  <symbol id="i-skills" viewBox="0 0 24 24">
    <g fill="none" stroke="currentColor" stroke-width="1.8" stroke-linecap="round" stroke-linejoin="round">
      <line x1="11" y1="20.5" x2="11" y2="5"/>
      <line x1="11" y1="9" x2="17.5" y2="9"/>
      <line x1="17.5" y1="9" x2="17.5" y2="5.5"/>
      <line x1="11" y1="15.5" x2="6" y2="15.5"/>
      <line x1="6" y1="20.5" x2="6" y2="19"/>
      <circle cx="17.5" cy="4" r="1.5" fill="currentColor" stroke="none"/>
      <circle cx="6" cy="20.5" r="1.5" fill="currentColor" stroke="none"/>
    </g>
  </symbol>
  <symbol id="i-map" viewBox="0 0 24 24">
    <g fill="none" stroke="currentColor" stroke-width="1.8" stroke-linecap="round" stroke-linejoin="round">
      <path d="M3 6.5L9 4L15 6.5L21 4V17.5L15 20L9 17.5L3 20Z"/>
      <line x1="9" y1="4" x2="9" y2="17.5"/>
      <line x1="15" y1="6.5" x2="15" y2="20"/>
    </g>
  </symbol>
  <symbol id="i-stance" viewBox="0 0 24 24">
    <g fill="none" stroke="currentColor" stroke-width="1.8" stroke-linecap="round" stroke-linejoin="round">
      <line x1="5" y1="19.5" x2="16" y2="4"/>
      <path d="M16.6 3.2L17.8 4.2L6.8 18.8L5.6 17.8Z" fill="currentColor" stroke="none"/>
      <line x1="19" y1="19.5" x2="8" y2="4"/>
      <path d="M7.4 3.2L6.2 4.2L17.2 18.8L18.4 17.8Z" fill="currentColor" stroke="none"/>
    </g>
  </symbol>
  <symbol id="i-dice" viewBox="0 0 24 24">
    <g fill="none" stroke="currentColor" stroke-width="1.8" stroke-linecap="round" stroke-linejoin="round">
      <rect x="3.5" y="3.5" width="17" height="17" rx="3"/>
      <circle cx="12" cy="12" r="1.6" fill="currentColor" stroke="none"/>
      <circle cx="7.5" cy="7.5" r="1.6" fill="currentColor" stroke="none"/>
      <circle cx="16.5" cy="16.5" r="1.6" fill="currentColor" stroke="none"/>
    </g>
  </symbol>
  <symbol id="i-talk" viewBox="0 0 24 24">
    <g fill="none" stroke="currentColor" stroke-width="1.8" stroke-linecap="round" stroke-linejoin="round">
      <path d="M4.5 4.5H19.5C20.1 4.5 20.5 4.9 20.5 5.5V14.5C20.5 15.1 20.1 15.5 19.5 15.5H11L5.5 21V15.5H4.5C3.9 15.5 3.5 15.1 3.5 14.5V5.5C3.5 4.9 3.9 4.5 4.5 4.5Z"/>
    </g>
  </symbol>
  <symbol id="i-save" viewBox="0 0 24 24">
    <g fill="none" stroke="currentColor" stroke-width="1.8" stroke-linecap="round" stroke-linejoin="round">
      <path d="M4 4.5H16.5L20 8V19.5H4Z"/>
      <rect x="7.5" y="4.5" width="7" height="5.5"/>
      <rect x="7.5" y="13" width="9" height="6.5"/>
    </g>
  </symbol>
  <symbol id="i-load" viewBox="0 0 24 24">
    <g fill="none" stroke="currentColor" stroke-width="1.8" stroke-linecap="round" stroke-linejoin="round">
      <path d="M3.5 6.5H9.5L11 9H19C19.8 9 20.5 9.7 20.5 10.5V18.5C20.5 19.3 19.8 20 19 20H5C4.2 20 3.5 19.3 3.5 18.5Z"/>
      <line x1="16" y1="14" x2="9.5" y2="14"/>
      <polyline points="12,11.5 9.5,14 12,16.5"/>
    </g>
  </symbol>
  <symbol id="i-help" viewBox="0 0 24 24">
    <g fill="none" stroke="currentColor" stroke-width="1.8" stroke-linecap="round" stroke-linejoin="round">
      <circle cx="12" cy="12" r="8.5"/>
      <path d="M9.5 9.8C9.5 8.4 10.5 7.6 12 7.6C13.5 7.6 14.5 8.5 14.5 9.8C14.5 11.1 13.3 11.6 12.6 12.4C12.2 12.8 12.1 13.3 12.1 14"/>
      <circle cx="12" cy="16.8" r="1.1" fill="currentColor" stroke="none"/>
    </g>
  </symbol>
  <symbol id="i-exit" viewBox="0 0 24 24">
    <g fill="none" stroke="currentColor" stroke-width="1.8" stroke-linecap="round" stroke-linejoin="round">
      <path d="M13 3.5H4.5V20.5H13"/>
      <line x1="18.5" y1="12" x2="9" y2="12"/>
      <polyline points="14.5,8.5 18.5,12 14.5,15.5"/>
    </g>
  </symbol>

  <!-- items -->
  <symbol id="i-item-flashlight" viewBox="0 0 24 24">
    <g fill="none" stroke="currentColor" stroke-width="1.8" stroke-linecap="round" stroke-linejoin="round">
      <rect x="3" y="9" width="9" height="6.2" rx="1.5"/>
      <path d="M12 7.4L17 5.4V18.8L12 16.8Z"/>
      <line x1="17" y1="5.4" x2="17" y2="18.8"/>
      <line x1="19.4" y1="8.8" x2="21.2" y2="8.2"/>
      <line x1="19.4" y1="15.2" x2="21.2" y2="15.8"/>
    </g>
  </symbol>
  <symbol id="i-item-crowbar" viewBox="0 0 24 24">
    <g fill="none" stroke="currentColor" stroke-width="1.8" stroke-linecap="round" stroke-linejoin="round">
      <path d="M7.5 20.5L7.5 8C7.5 5.2 9.3 3.5 11.5 3.5C13.7 3.5 15.4 5.2 15.4 8"/>
      <line x1="15.4" y1="10" x2="13" y2="13"/>
    </g>
  </symbol>
  <symbol id="i-item-canned-food" viewBox="0 0 24 24">
    <g fill="none" stroke="currentColor" stroke-width="1.8" stroke-linecap="round" stroke-linejoin="round">
      <ellipse cx="12" cy="6.2" rx="6.5" ry="2.4"/>
      <line x1="5.5" y1="6.2" x2="5.5" y2="17.8"/>
      <line x1="18.5" y1="6.2" x2="18.5" y2="17.8"/>
      <ellipse cx="12" cy="17.8" rx="6.5" ry="2.4"/>
      <line x1="5.5" y1="10" x2="18.5" y2="10"/>
      <line x1="5.5" y1="14" x2="18.5" y2="14"/>
    </g>
  </symbol>
  <symbol id="i-item-water" viewBox="0 0 24 24">
    <g fill="none" stroke="currentColor" stroke-width="1.8" stroke-linecap="round" stroke-linejoin="round">
      <path d="M10 3.5H14V7.5L16.5 11.5C17.2 12.6 17.5 13.6 17.5 15V18.5C17.5 19.6 16.6 20.5 15.5 20.5H8.5C7.4 20.5 6.5 19.6 6.5 18.5V15C6.5 13.6 6.8 12.6 7.5 11.5L10 7.5Z"/>
      <line x1="10" y1="3.5" x2="14" y2="3.5"/>
      <line x1="6.6" y1="15" x2="17.4" y2="15"/>
    </g>
  </symbol>
  <symbol id="i-item-first-aid-kit" viewBox="0 0 24 24">
    <g fill="none" stroke="currentColor" stroke-width="1.8" stroke-linecap="round" stroke-linejoin="round">
      <rect x="3" y="7" width="18" height="13" rx="1.5"/>
      <line x1="9" y1="7" x2="9" y2="4.5"/>
      <line x1="15" y1="7" x2="15" y2="4.5"/>
      <line x1="9" y1="4.5" x2="15" y2="4.5"/>
      <line x1="12" y1="10.5" x2="12" y2="16.5"/>
      <line x1="9" y1="13.5" x2="15" y2="13.5"/>
    </g>
  </symbol>
  <symbol id="i-item-knife" viewBox="0 0 24 24">
    <g fill="none" stroke="currentColor" stroke-width="1.8" stroke-linecap="round" stroke-linejoin="round">
      <path d="M12.5 3.5L17 4.8C15.9 8.3 14.2 10.6 11.8 12.2L10 10.6C10.4 8.2 11.2 5.7 12.5 3.5Z"/>
      <line x1="8.6" y1="10" x2="13.6" y2="14"/>
      <line x1="7.8" y1="11.4" x2="11.4" y2="15"/>
      <path d="M10.2 13.8L6.8 17.2C6.2 17.8 5.6 18.4 5.6 19.6C5.6 20.4 5.9 20.9 6.3 21.4"/>
    </g>
  </symbol>
  <symbol id="i-item-energy-bar" viewBox="0 0 24 24">
    <g fill="none" stroke="currentColor" stroke-width="1.8" stroke-linecap="round" stroke-linejoin="round">
      <rect x="2.5" y="7" width="19" height="10" rx="2.5"/>
      <line x1="8" y1="17" x2="10.5" y2="7"/>
      <line x1="13" y1="17" x2="15.5" y2="7"/>
    </g>
  </symbol>
  <symbol id="i-item-power-bank" viewBox="0 0 24 24">
    <g fill="none" stroke="currentColor" stroke-width="1.8" stroke-linecap="round" stroke-linejoin="round">
      <rect x="4" y="4" width="16" height="16" rx="3"/>
      <path d="M13.2 7.5L9 13H12L10.8 16.5L15 11H12Z"/>
      <line x1="5.2" y1="12" x2="5.2" y2="14"/>
    </g>
  </symbol>
  <symbol id="i-item-machete" viewBox="0 0 24 24">
    <g fill="none" stroke="currentColor" stroke-width="1.8" stroke-linecap="round" stroke-linejoin="round">
      <path d="M5.5 17.5C5.5 11.5 9.5 6.5 15.5 4L18.5 8C15.5 12.5 11 16 6.5 18.5Z"/>
      <path d="M9 20.5L4 17.5C4.7 16.4 5.4 15.4 6 14.5L10.5 17.5C10 18.5 9.5 19.5 9 20.5Z"/>
    </g>
  </symbol>
  <symbol id="i-item-generic" viewBox="0 0 24 24">
    <g fill="none" stroke="currentColor" stroke-width="1.8" stroke-linecap="round" stroke-linejoin="round">
      <path d="M4.5 7.5H19.5V19.5H4.5Z"/>
      <path d="M4.5 7.5L7 4.5H17L19.5 7.5"/>
      <line x1="7.5" y1="9.5" x2="7.5" y2="17.5"/>
      <line x1="16.5" y1="9.5" x2="16.5" y2="17.5"/>
      <line x1="9.5" y1="9.5" x2="14.5" y2="17.5"/>
    </g>
  </symbol>

  <!-- interface -->
  <symbol id="i-plus" viewBox="0 0 24 24">
    <g fill="none" stroke="currentColor" stroke-width="1.8" stroke-linecap="round" stroke-linejoin="round">
      <line x1="12" y1="4" x2="12" y2="20"/>
      <line x1="4" y1="12" x2="20" y2="12"/>
    </g>
  </symbol>
  <symbol id="i-minus" viewBox="0 0 24 24">
    <g fill="none" stroke="currentColor" stroke-width="1.8" stroke-linecap="round" stroke-linejoin="round">
      <line x1="4" y1="12" x2="20" y2="12"/>
    </g>
  </symbol>
  <symbol id="i-check" viewBox="0 0 24 24">
    <g fill="none" stroke="currentColor" stroke-width="1.8" stroke-linecap="round" stroke-linejoin="round">
      <polyline points="4,12.5 9.5,18 20,5.5"/>
    </g>
  </symbol>
  <symbol id="i-x" viewBox="0 0 24 24">
    <g fill="none" stroke="currentColor" stroke-width="1.8" stroke-linecap="round" stroke-linejoin="round">
      <line x1="5" y1="5" x2="19" y2="19"/>
      <line x1="19" y1="5" x2="5" y2="19"/>
    </g>
  </symbol>
  <symbol id="i-hp" viewBox="0 0 24 24">
    <g fill="none" stroke="currentColor" stroke-width="1.8" stroke-linecap="round" stroke-linejoin="round">
      <path d="M12 20.5C12 20.5 3.5 15.4 3.5 9.4C3.5 6.5 5.6 4.5 8.2 4.5C10 4.5 11.3 5.6 12 6.8C12.7 5.6 14 4.5 15.8 4.5C18.4 4.5 20.5 6.5 20.5 9.4C20.5 15.4 12 20.5 12 20.5Z"/>
    </g>
  </symbol>
  <symbol id="i-weight" viewBox="0 0 24 24">
    <g fill="none" stroke="currentColor" stroke-width="1.8" stroke-linecap="round" stroke-linejoin="round">
      <path d="M3 20.5L7.2 9.5H16.8L21 20.5Z"/>
      <path d="M10.4 9.5C9.4 8.7 8.8 7.6 8.8 6.4C8.8 4.9 10.2 3.8 12 3.8C13.8 3.8 15.2 4.9 15.2 6.4C15.2 7.6 14.6 8.7 13.6 9.5"/>
    </g>
  </symbol>
  <symbol id="i-equip" viewBox="0 0 24 24">
    <g fill="none" stroke="currentColor" stroke-width="1.8" stroke-linecap="round" stroke-linejoin="round">
      <path d="M12 2.4L15.2 6.6V12H8.8V6.6Z" fill="currentColor" stroke="none"/>
      <path d="M6.4 13.8H17.6"/>
      <path d="M12 13.8V18.6"/>
      <path d="M10.2 20.6H13.8"/>
    </g>
  </symbol>
  <symbol id="i-unequip" viewBox="0 0 24 24">
    <g fill="none" stroke="currentColor" stroke-width="1.8" stroke-linecap="round" stroke-linejoin="round">
      <path d="M12 21.6L15.2 17.4V12H8.8V17.4Z" fill="currentColor" stroke="none"/>
      <path d="M6.4 10.2H17.6"/>
      <path d="M12 10.2V5.4"/>
      <path d="M10.2 3.4H13.8"/>
    </g>
  </symbol>
  <symbol id="i-learn" viewBox="0 0 24 24">
    <g fill="none" stroke="currentColor" stroke-width="1.8" stroke-linecap="round" stroke-linejoin="round">
      <path d="M12 6.6C10.1 5.1 7.6 4.6 4.8 4.9V18.2C7.6 17.9 10.1 18.4 12 19.9"/>
      <path d="M12 6.6C13.9 5.1 16.4 4.6 19.2 4.9V18.2C16.4 17.9 13.9 18.4 12 19.9"/>
      <path d="M12 6.6V19.9"/>
    </g>
  </symbol>
  <symbol id="i-use" viewBox="0 0 24 24">
    <g fill="none" stroke="currentColor" stroke-width="1.8" stroke-linecap="round" stroke-linejoin="round">
      <path d="M9.8 2.8h4.4"/>
      <path d="M10.4 2.8v4.4l-3.1 5.6c-.7 1.2-.9 2.4-.9 3.2a5.2 5.2 0 0 0 5.2 5.2h.8a5.2 5.2 0 0 0 5.2-5.2c0-.8-.2-2-.9-3.2l-3.1-5.6V2.8"/>
      <path d="M7.6 15.4h8.8"/>
    </g>
  </symbol>
  <symbol id="i-clock" viewBox="0 0 24 24">
    <g fill="none" stroke="currentColor" stroke-width="1.8" stroke-linecap="round" stroke-linejoin="round">
      <circle cx="12" cy="12" r="8.4"/>
      <path d="M12 6.6V12L15.8 14.3"/>
    </g>
  </symbol>
  <symbol id="i-split" viewBox="0 0 24 24">
    <g fill="none" stroke="currentColor" stroke-width="1.8" stroke-linecap="round" stroke-linejoin="round">
      <rect x="3.2" y="8.6" width="7.2" height="6.8" rx="1.6"/>
      <rect x="13.6" y="3.4" width="7.2" height="6.8" rx="1.6"/>
      <rect x="13.6" y="13.8" width="7.2" height="6.8" rx="1.6"/>
      <path d="M10.4 12h1.6c.9 0 1.6-.7 1.6-1.6V6.8"/>
      <path d="M10.4 12h1.6c.9 0 1.6.7 1.6 1.6v3.6"/>
    </g>
  </symbol>
  <symbol id="i-stack" viewBox="0 0 24 24">
    <g fill="none" stroke="currentColor" stroke-width="1.8" stroke-linecap="round" stroke-linejoin="round">
      <path d="M12 3.4 20.6 7.6 12 11.8 3.4 7.6 12 3.4Z"/>
      <path d="M3.4 12.2 12 16.4l8.6-4.2"/>
      <path d="M3.4 16.4 12 20.6l8.6-4.2"/>
    </g>
  </symbol>
  <symbol id="i-rest" viewBox="0 0 24 24">
    <g fill="none" stroke="currentColor" stroke-width="1.8" stroke-linecap="round" stroke-linejoin="round">
      <path d="M20.4 14.6A8.6 8.6 0 0 1 9.4 3.6A8.7 8.7 0 1 0 20.4 14.6Z"/>
    </g>
  </symbol>
</svg>
